<?xml version="1.0" encoding="utf-8"?>
<!-- Generator: Adobe Illustrator 18.1.1, SVG Export Plug-In . SVG Version: 6.00 Build 0)  -->
<!DOCTYPE svg PUBLIC "-//W3C//DTD SVG 1.1//EN" "http://www.w3.org/Graphics/SVG/1.1/DTD/svg11.dtd">
<svg version="1.1" id="Layer_1" xmlns="http://www.w3.org/2000/svg" xmlns:xlink="http://www.w3.org/1999/xlink" x="0px" y="0px"
	 viewBox="0 0 220 79" enable-background="new 0 0 220 79" xml:space="preserve">
<g>
	<defs>
		<rect id="SVGID_1_" width="220.3" height="79"/>
	</defs>
	<clipPath id="SVGID_2_">
		<use xlink:href="#SVGID_1_"  overflow="visible"/>
	</clipPath>
	<g clip-path="url(#SVGID_2_)">
		<defs>
			<rect id="SVGID_3_" y="-45.6" width="220.3" height="170.2"/>
		</defs>
		<clipPath id="SVGID_4_">
			<use xlink:href="#SVGID_3_"  overflow="visible"/>
		</clipPath>
		<path clip-path="url(#SVGID_4_)" fill="#4F758B" d="M2.8,21.2c0.2,0,0.4,0,0.6-0.1c0.2,0,0.4,0,0.6,0C4.3,21,4.7,21,5.2,21
			c1.7-0.1,3.6,0,5.7,0.3c2.1,0.3,4.4,0.8,6.7,1.6c2.3,0.8,4.7,1.9,7,3.1c2.3,1.3,4.6,2.8,6.7,4.3c2.1,1.6,4.2,3.3,6.2,4.9
			c2,1.7,3.9,3.4,5.7,4.9c0.5,0.4,0.9,0.8,1.4,1.2c0.5,0.4,0.9,0.8,1.4,1.1c0.5,0.4,0.9,0.7,1.3,1.1c0.5,0.4,0.9,0.7,1.3,1.1
			c0.2,0.2,0.4,0.3,0.7,0.5c0.2,0.2,0.4,0.3,0.7,0.5c0.2,0.2,0.4,0.3,0.7,0.5c0.2,0.2,0.4,0.3,0.7,0.5c0.4,0.3,0.9,0.6,1.3,0.9
			c0.2,0.2,0.4,0.3,0.6,0.4c0.2,0.1,0.4,0.3,0.6,0.4c1.7,1.1,3.4,2.1,5,3c1.6,0.8,3.2,1.6,4.6,2.2c0.7,0.3,1.4,0.6,2,0.8
			c0.3,0.1,0.6,0.2,0.9,0.4c0.3,0.1,0.6,0.2,0.9,0.3c0.2,0.1,0.4,0.2,0.7,0.2V11.1L45.3-0.2v22.6l-12.4-6.2c-6.4-3.2-14-3.2-20.5,0
			l-10,5C2.5,21.2,2.7,21.2,2.8,21.2"/>
		<path clip-path="url(#SVGID_4_)" fill="#E41E2D" d="M65.1,57.7c-0.2,0-0.4,0-0.6,0.1c-0.2,0-0.4,0-0.6,0.1c-0.4,0-0.8,0.1-1.2,0.1
			c-1.7,0.1-3.6,0-5.7-0.2c-2.1-0.3-4.4-0.8-6.7-1.6c-1.2-0.4-2.3-0.8-3.5-1.4c-1.2-0.5-2.3-1.1-3.5-1.7c-1.2-0.6-2.3-1.3-3.4-2
			c-0.6-0.4-1.1-0.7-1.7-1.1c-0.5-0.4-1.1-0.8-1.6-1.2c-2.2-1.6-4.2-3.3-6.2-5c-0.5-0.4-1-0.8-1.5-1.3c-0.5-0.4-1-0.8-1.4-1.3
			c-0.9-0.8-1.9-1.6-2.8-2.5c-0.2-0.2-0.5-0.4-0.7-0.6c-0.2-0.2-0.5-0.4-0.7-0.6c-0.2-0.2-0.5-0.4-0.7-0.6c-0.2-0.2-0.5-0.4-0.7-0.6
			c-0.2-0.2-0.4-0.4-0.7-0.6c-0.2-0.2-0.4-0.4-0.7-0.6c-0.4-0.4-0.9-0.7-1.3-1.1c-1.8-1.4-3.5-2.7-5.2-3.8c-1.7-1.1-3.4-2.1-5-3
			c-1.6-0.9-3.2-1.6-4.6-2.2c-0.2-0.1-0.4-0.1-0.5-0.2c-0.2-0.1-0.3-0.1-0.5-0.2c-0.2-0.1-0.3-0.1-0.5-0.2c-0.2-0.1-0.3-0.1-0.5-0.2
			c-0.3-0.1-0.6-0.2-0.9-0.4c-0.3-0.1-0.6-0.2-0.9-0.3c-0.2-0.1-0.4-0.2-0.7-0.2l0,44.3L22.6,79V56.4L35,62.6c6.4,3.2,14,3.2,20.5,0
			l9.9-5C65.3,57.6,65.2,57.6,65.1,57.7"/>
		<polyline clip-path="url(#SVGID_4_)" fill="#3E2B2E" points="90.5,11.1 92.1,11.1 101.7,23.3 101.7,11.1 103.4,11.1 103.4,26.3 
			102,26.3 92.2,13.9 92.2,26.3 90.5,26.3 90.5,11.1 		"/>
		<polyline clip-path="url(#SVGID_4_)" fill="#3E2B2E" points="107.2,11.1 118.2,11.1 118.2,12.7 108.9,12.7 108.9,17.9 117.2,17.9 
			117.2,19.4 108.9,19.4 108.9,24.8 118.3,24.8 118.3,26.3 107.2,26.3 107.2,11.1 		"/>
		<path clip-path="url(#SVGID_4_)" fill="#3E2B2E" d="M121.2,11.1h6.5c1.7,0,3.1,0.5,4,1.3c0.6,0.7,1,1.5,1,2.4v0c0,2-1.2,3-2.4,3.5
			c1.8,0.5,3.3,1.6,3.3,3.7v0c0,2.6-2.2,4.2-5.5,4.2h-6.8V11.1 M130.9,15.1c0-1.5-1.2-2.5-3.4-2.5h-4.6v5.2h4.5
			C129.4,17.9,130.9,17,130.9,15.1L130.9,15.1z M127.7,19.4h-4.8v5.4h5.1c2.3,0,3.7-1,3.7-2.7v0C131.7,20.4,130.3,19.4,127.7,19.4z"
			/>
		<path clip-path="url(#SVGID_4_)" fill="#3E2B2E" d="M136.3,11.1h6.5c1.9,0,3.4,0.6,4.3,1.5c0.7,0.7,1.2,1.8,1.2,3v0
			c0,2.5-1.7,4-4.1,4.4l4.7,6.2h-2.1l-4.4-5.9H138v5.9h-1.7V11.1 M142.7,18.9c2.3,0,3.9-1.2,3.9-3.1v0c0-1.9-1.4-3-3.9-3H138v6.2
			H142.7z"/>
		<path clip-path="url(#SVGID_4_)" fill="#3E2B2E" d="M156.7,11h1.6l6.9,15.3h-1.8l-1.8-4h-8.3l-1.8,4h-1.8L156.7,11 M160.9,20.8
			l-3.5-7.7l-3.5,7.7H160.9z"/>
		<path clip-path="url(#SVGID_4_)" fill="#3E2B2E" d="M165.9,24.1l1.1-1.3c1.6,1.4,3.1,2.2,5.2,2.2c2,0,3.4-1.1,3.4-2.6v0
			c0-1.4-0.8-2.2-4-2.9c-3.5-0.8-5.1-1.9-5.1-4.4v0c0-2.4,2.1-4.2,5-4.2c2.2,0,3.8,0.6,5.3,1.9l-1,1.3c-1.4-1.2-2.8-1.7-4.4-1.7
			c-2,0-3.2,1.1-3.2,2.5v0c0,1.4,0.8,2.2,4.1,3c3.4,0.7,5,2,5,4.3v0c0,2.6-2.2,4.3-5.2,4.3C169.7,26.6,167.7,25.7,165.9,24.1"/>
		<polyline clip-path="url(#SVGID_4_)" fill="#3E2B2E" points="180.3,11.1 182,11.1 182,20.2 190.7,11.1 192.9,11.1 186.4,17.8 
			193.2,26.3 191.1,26.3 185.2,19 182,22.3 182,26.3 180.3,26.3 180.3,11.1 		"/>
		<path clip-path="url(#SVGID_4_)" fill="#3E2B2E" d="M200.9,11h1.6l6.9,15.3h-1.8l-1.8-4h-8.3l-1.8,4h-1.8L200.9,11 M205.1,20.8
			l-3.5-7.7l-3.5,7.7H205.1z"/>
		<path clip-path="url(#SVGID_4_)" fill="#3E2B2E" d="M89.2,44.7l2-2.4c1.4,1.1,2.8,1.8,4.5,1.8c1.4,0,2.2-0.5,2.2-1.4v0
			c0-0.8-0.5-1.3-3.1-1.9c-3.1-0.8-5-1.6-5-4.7v0c0-2.8,2.2-4.6,5.3-4.6c2.2,0,4.1,0.7,5.7,1.9L99,36c-1.3-0.9-2.7-1.5-4-1.5
			c-1.3,0-2,0.6-2,1.3v0c0,1,0.7,1.3,3.3,2c3.1,0.8,4.8,1.9,4.8,4.6v0c0,3-2.3,4.7-5.6,4.7C93.3,47.2,91,46.4,89.2,44.7"/>
		<path clip-path="url(#SVGID_4_)" fill="#3E2B2E" d="M103.6,31.7h6.2c3.6,0,5.8,2.2,5.8,5.3v0c0,3.5-2.7,5.3-6.1,5.3h-2.5V47h-3.3
			V31.7 M109.6,39.4c1.7,0,2.7-1,2.7-2.3v0c0-1.5-1-2.3-2.7-2.3h-2.6v4.7H109.6z"/>
		<rect x="117.7" y="31.7" clip-path="url(#SVGID_4_)" fill="#3E2B2E" width="3.3" height="15.2"/>
		<polyline clip-path="url(#SVGID_4_)" fill="#3E2B2E" points="124.3,31.7 127.4,31.7 134.5,41.1 134.5,31.7 137.8,31.7 137.8,47 
			135,47 127.6,37.3 127.6,47 124.3,47 124.3,31.7 		"/>
		<polyline clip-path="url(#SVGID_4_)" fill="#3E2B2E" points="140.9,31.7 152.4,31.7 152.4,34.7 144.2,34.7 144.2,37.8 151.4,37.8 
			151.4,40.8 144.2,40.8 144.2,44 152.5,44 152.5,47 140.9,47 140.9,31.7 		"/>
		<polyline clip-path="url(#SVGID_4_)" fill="#3E2B2E" points="166.7,40.1 166.7,38.5 162.6,38.5 162.6,34.3 160.8,34.3 160.8,38.5 
			156.6,38.5 156.6,40.1 160.8,40.1 160.8,44.3 162.6,44.3 162.6,40.1 166.7,40.1 		"/>
		<path clip-path="url(#SVGID_4_)" fill="#3E2B2E" d="M171.1,31.7h6.2c3.6,0,5.8,2.2,5.8,5.3v0c0,3.5-2.7,5.3-6.2,5.3h-2.5V47h-3.3
			V31.7 M177.1,39.4c1.7,0,2.7-1,2.7-2.3v0c0-1.5-1-2.3-2.7-2.3h-2.6v4.7H177.1z"/>
		<path clip-path="url(#SVGID_4_)" fill="#3E2B2E" d="M188.8,31.6h3.1l6.5,15.3h-3.5l-1.4-3.4h-6.4l-1.4,3.4h-3.4L188.8,31.6
			 M192.3,40.6l-2-4.9l-2,4.9H192.3z"/>
		<rect x="199.9" y="31.7" clip-path="url(#SVGID_4_)" fill="#3E2B2E" width="3.3" height="15.2"/>
		<polyline clip-path="url(#SVGID_4_)" fill="#3E2B2E" points="206.5,31.7 209.6,31.7 216.7,41.1 216.7,31.7 220,31.7 220,47 
			217.2,47 209.8,37.3 209.8,47 206.5,47 206.5,31.7 		"/>
		<path clip-path="url(#SVGID_4_)" fill="#3E2B2E" d="M89.9,60.1L89.9,60.1c0-4.3,3.2-7.9,7.7-7.9c2.8,0,4.4,1,5.9,2.4l-1.2,1.3
			c-1.3-1.2-2.7-2.1-4.8-2.1c-3.4,0-5.9,2.7-5.9,6.2v0c0,3.5,2.5,6.3,5.9,6.3c2.1,0,3.5-0.8,4.9-2.2l1.1,1.1
			c-1.6,1.6-3.3,2.7-6.1,2.7C93.1,67.9,89.9,64.4,89.9,60.1"/>
		<polyline clip-path="url(#SVGID_4_)" fill="#3E2B2E" points="106,52.4 117,52.4 117,54 107.7,54 107.7,59.2 116,59.2 116,60.7 
			107.7,60.7 107.7,66.1 117.1,66.1 117.1,67.6 106,67.6 106,52.4 		"/>
		<polyline clip-path="url(#SVGID_4_)" fill="#3E2B2E" points="120,52.4 121.6,52.4 131.2,64.6 131.2,52.4 132.9,52.4 132.9,67.6 
			131.5,67.6 121.7,55.1 121.7,67.6 120,67.6 120,52.4 		"/>
		<polyline clip-path="url(#SVGID_4_)" fill="#3E2B2E" points="140.7,54 135.6,54 135.6,52.4 147.5,52.4 147.5,54 142.4,54 
			142.4,67.6 140.7,67.6 140.7,54 		"/>
		<polyline clip-path="url(#SVGID_4_)" fill="#3E2B2E" points="150.2,52.4 161.2,52.4 161.2,54 151.9,54 151.9,59.2 160.2,59.2 
			160.2,60.7 151.9,60.7 151.9,66.1 161.3,66.1 161.3,67.6 150.2,67.6 150.2,52.4 		"/>
		<path clip-path="url(#SVGID_4_)" fill="#3E2B2E" d="M164.2,52.4h6.5c1.9,0,3.4,0.6,4.3,1.5c0.7,0.7,1.2,1.8,1.2,3v0
			c0,2.5-1.7,4-4.1,4.4l4.7,6.2h-2.1l-4.4-5.9h-4.3v5.9h-1.7V52.4 M170.6,60.2c2.3,0,3.9-1.2,3.9-3.1v0c0-1.9-1.4-3-3.9-3h-4.7v6.2
			H170.6z"/>
	</g>
</g>
</svg>
